/* XPM */
static char *result[] = {
/* columns rows colors chars-per-pixel */
"32 32 14 1 ",
"  c #010000",
". c #252223",
"X c #2F2C2C",
"o c #3C3938",
"O c #624D43",
"+ c #A06B69",
"@ c #EF9B7B",
"# c #AC8182",
"$ c #D39283",
"% c #D79D8F",
"& c #DCAA97",
"* c #E8B49E",
"= c #EBBEB7",
"- c None",
/* pixels */
"--------------------------------",
"--------------------------------",
"--------------------------------",
"--------------------------------",
"--------------    --------------",
"------------- XXXX -------------",
"------------ XXXXXX ------------",
"------------ XXXXXX ------------",
"------------  %$%&  ------------",
"------------ & %&.& ------------",
"------------ * && = ------------",
"------------- *&&% -------------",
"------------- O&%+ -------------",
"------------ o.   o ------------",
"----------- XXX  XoX -----------",
"----------- X.XXXo.X -----------",
"----------- & oooo @ -----------",
"----------- % .... $ -----------",
"---------- %  XX.. .# ----------",
"---------- &%      *& ----------",
"-----------    X     -----------",
"------------- XoXX -------------",
"------------- oo . -------------",
"------------- o  X -------------",
"------------- X  X -------------",
"------------ .o  .X ------------",
"------------   --   ------------",
"--------------------------------",
"--------------------------------",
"--------------------------------",
"--------------------------------",
"--------------------------------"
};
