/* XPM */
static char *result[] = {
/* columns rows colors chars-per-pixel */
"32 32 43 1 ",
"  c #010925",
". c #0E1E39",
"X c #0E203B",
"o c #0F203B",
"O c #0E213B",
"+ c #0F203C",
"@ c #10203B",
"# c #202241",
"$ c #202341",
"% c #203555",
"& c #27375F",
"* c #2A3C64",
"= c #2B3E67",
"- c #2C3F68",
"; c #2D4068",
": c #2E416C",
"> c #2E436C",
", c #2F456D",
"< c #34486F",
"1 c #35486F",
"2 c #3C4B77",
"3 c #394D75",
"4 c #3B4C78",
"5 c #3B4D78",
"6 c #3C4C78",
"7 c #3A5A7B",
"8 c #415170",
"9 c #515E7D",
"0 c #406385",
"q c #4E618B",
"w c #4C618D",
"e c #4C628C",
"r c #4A6E90",
"t c #597C9F",
"y c #697B9B",
"u c #6B85A4",
"i c #7187A6",
"p c #738DAF",
"a c #8097B5",
"s c #8399BA",
"d c #A8C0DC",
"f c #C0D5ED",
"g c #C1D5FD",
/* pixels */
"X00s#ggXgXss000sXg00ss000ggg07gp",
"X5XOoXXqq00XXXXXXXX00=XXX00XqXX0",
"g02.wq0qXXXXuXqqXXXXX==0X=0Xq5X$",
"g56+45X0XXX55XXqXXXXXXXXXXXX05X$",
"00@eaqXXX=55X== =555XXXXXX=XXXX$",
"$X5X5XXXXuuu     55uuu=XX==X00=g",
"gX55XXXXXXX=       ====5XXXXX0XX",
"$555=XXXq=           =qXXXX==XXg",
"gXX0=XXuq5            ==5XXX=X=0",
"sXXXXX=Xf5    $       =f5XXXXXXs",
"0==XXX5X=   $$$$$$     55uXX00=s",
"$0X0X55X=  $$g$$gg$    =f=XXX5X$",
"$0X0X5f5  $$gss$$s0$    uuXXX5Xg",
"00uXXXu5  $$sst$000$%   =XXX5X=s",
"0=fXXXXX $$$$$$$$$$$$$$ =5XXXX=0",
"$XuXuXXu=$gs$$$$$$s7$$$  =dXX=X$",
"$XXXuXXq=$s7$ggs$gss$g$$fqXX==X$",
"s=fXXXu $s00$sg0$8s0$iy$uqXXX000",
"X=uXXXXu=$$$$gpr$$sr$09$uqXuqX=0",
"sXXXXXXXu$$$$$$$$$$$$$$$$qf q==$",
"$X5fXuX u$$g$$000$0$$0$$ qf=XX0$",
"0XXuXXX==$rss$sr$$sr$s$=qXq=qXX0",
"sXauXX == -1:=><*&,3;@-== q5fX0s",
"0XXXf= 5=====uuu====u==   =fuu00",
"$XXqa  5f==u===u==uu=u===== fug$",
"gXXXXqufff=uuuu==uuu=uuuuu   =gs",
"sXXXXfuuufuufffffuufuu5uuXffXXXs",
"saX=fu   uuqufuuuu5uuuuu fffuX0r",
"$qu5  =uufuuffufu=ffuu  ufuuuuu$",
"g0ufufffffuuuuufufffuuf0uuuufu0$",
"s=u555X05Xff0fffffuff=5qX00555gg",
"XX0$t00X000$0gg00$ggX000gg00000$"
};
