/* XPM */
static char *result[] = {
/* columns rows colors chars-per-pixel */
"32 32 12 1 ",
"  c #010000",
". c #252223",
"X c #2F2C2C",
"o c #3C3938",
"O c #DE7C60",
"+ c #AC8182",
"@ c #D39283",
"# c #D79D8F",
"$ c #DCAA97",
"% c #E8B49E",
"& c #EBBEB7",
"* c None",
/* pixels */
"********************************",
"********************************",
"********************************",
"********************************",
"**************    **************",
"************* .... *************",
"************ .....X ************",
"************ ....XX ************",
"************ ..XXXX ************",
"************ XXXXXX ************",
"************@ .XXX O************",
"************+$    #+************",
"************* .XX. *************",
"************ .    . ************",
"*********** . XXXX . ***********",
"*********** . XXXX   ***********",
"*********** % XooX %.***********",
"********** #  X.o.  # **********",
"********** #  XXXX  # **********",
"********** @  %%%%  # **********",
"*********** *      & ***********",
"************* XXXX *************",
"************* XX X *************",
"************* X  o *************",
"************* . *  *************",
"************* . *  *************",
"************ X. * . ************",
"************    *   ************",
"********************************",
"********************************",
"********************************",
"********************************"
};
