/* XPM */
static char *result[] = {
/* columns rows colors chars-per-pixel */
"32 32 47 1 ",
"  c #010925",
". c #020A26",
"X c #0E1E39",
"o c #0E203B",
"O c #0F203B",
"+ c #0E213B",
"@ c #0F203C",
"# c #0F213C",
"$ c #10203B",
"% c #202241",
"& c #202341",
"* c #203555",
"= c #2B3E67",
"- c #2C3E66",
"; c #2C3E68",
": c #2C3F68",
"> c #3C4B77",
", c #3B4C78",
"< c #3B4D78",
"1 c #3C4C78",
"2 c #3C4E79",
"3 c #3A5A7B",
"4 c #406385",
"5 c #4E618B",
"6 c #4C618D",
"7 c #4C628C",
"8 c #4A6E90",
"9 c #566C91",
"0 c #597C9F",
"q c #697B9B",
"w c #6781A0",
"e c #6881A1",
"r c #6983A1",
"t c #6B85A4",
"y c #7187A6",
"u c #738DAF",
"i c #8097B5",
"p c #8399BA",
"a c #A8C0DC",
"s c #BDD3EA",
"d c #BCD2EB",
"f c #BED3EC",
"g c #BFD3EC",
"h c #BFD4EC",
"j c #BFD5EC",
"k c #C0D5ED",
"l c #C1D5FD",
/* pixels */
"o44p%llolopp444pol44pp444lll43lu",
"o<o+Ooo5544oooooooo44=ooo44o5oo4",
"l4>X6545ooooto55ooooo==4o=4o5<o&",
"l<1@,<o4ooo<<oo5oooooooooooo4<o&",
"44$7i5ooo=<<o== =<<<oooooo=oooo&",
"&o<o<oooottt     <<ttt=oo==o44=l",
"lo<<ooooooo=       ====<ooooo4oo",
"&<<<=ooo5=           =5oooo==ool",
"loo4=oot5<            ==<ooo=o=4",
"pooooo=ok<            =k<oooooop",
"4==ooo<o=              <<too44=p",
"&4o4o<<o=              =k=ooo<o&",
"&4o4o<k<                ttooo<ol",
"44tooot<      &         =ooo<o=p",
"4=kooooo    &&&&&&      =<oooo=4",
"&ototoot=  &&l&&ll&      =aoo=o&",
"&oootoo5= &&lpp&&p4&    k5oo==o&",
"p=kooot   &&pp0&444&*  <t5ooo444",
"o=toooot=&&&&&&&&&&&&&&<t5ot5o=4",
"pooooooot&lp&&&&&&p3&&&  5k 5==&",
"&o<koto t&p3&llp&lpp&l&& 5k=oo4&",
"4ootooo=&p44&pl4&9p4&yq&5o5=5oo4",
"poitoo ==.;-:::::::::#::= 5<ko4p",
"4oook= <=====ttt====t==   =ktt44",
"&oo5i  <k==t===t==tt=t===== ktl&",
"loooo5tkkk=tttt==ttt=ttttt   =lp",
"pooooktttkttghdjswrfte2ttokkooop",
"pio=kt   tt5tktttt<ttttt kkkto48",
"&5t<  =ttkttkktkt=kktt  tkttttt&",
"l4tktkkkkktttttktkkkttk4ttttkt4&",
"p=t<<<o4<okk4kkkkktkk=<5o44<<<ll",
"oo4&044o444&4ll44&llo444ll44444&"
};
