/* XPM */
static char *result[] = {
/* columns rows colors chars-per-pixel */
"32 32 35 1 ",
"  c #010925",
". c #0E1E39",
"X c #0E203B",
"o c #0F203B",
"O c #0E213B",
"+ c #0F203C",
"@ c #10203B",
"# c #202241",
"$ c #202341",
"% c #203555",
"& c #2B3E67",
"* c #3C4B77",
"= c #3B4C78",
"- c #3B4D78",
"; c #3C4C78",
": c #3A5A7B",
"> c #415170",
", c #515E7D",
"< c #406385",
"1 c #4E618B",
"2 c #4C618D",
"3 c #4C628C",
"4 c #4A6E90",
"5 c #576C90",
"6 c #597C9F",
"7 c #677698",
"8 c #697B9B",
"9 c #6B85A4",
"0 c #7187A6",
"q c #738DAF",
"w c #8097B5",
"e c #8399BA",
"r c #A8C0DC",
"t c #C0D5ED",
"y c #C1D5FD",
/* pixels */
"X<<e#yyXyXee<<<eXy<<ee<<<yyy<:yq",
"X-XOoXX11<<XXXXXXXX<<&XXX<<X1XX<",
"y<*.21<1XXXX9X11XXXXX&&<X&<X1-X$",
"y-;+=-X<XXX--XX1XXXXXXXXXXXX<-X$",
"<<@3w1XXX&--X&& &---XXXXXX&XXXX$",
"$X-X-XXXX999  $  --999&XX&&X<<&y",
"yX--XXXXXXX&$$$$$$ &&&&-XXXXX<XX",
"$---&XXX1& $$y$$yy$  &1XXXX&&XXy",
"yXX<&XX91-$$yee$$e<$  &&-XXX&X&<",
"eXXXXX&Xt-$$ee6$<<<$% &t-XXXXXXe",
"<&&XXX-X&$$$$$$$$$$$$$$--9XX<<&e",
"$<X<X--X&$ye$$$$$$e:$$$&t&XXX-X$",
"$<X<X-t- $e:$yye$yee$y$$99XXX-Xy",
"<<9XXX9-$e<<$ey<$>e<$08$&XXX-X&e",
"<&tXXXXX $$$$yq4$$e4$<,$&-XXXX&<",
"$X9X9XX9&$$$$$$$$$$$$$$$$&rXX&X$",
"$XXX9XX1&$$y$$<<<$<$$<$$t1XX&&X$",
"e&tXXX9  $4ee$e4$$e4$e$-91XXX<<<",
"X&9XXXX9&&<e4$4e$$:ee$$-91X91X&<",
"eXXXXXXX9&$$$$$$$$$$$$$$ 1t 1&&$",
"$X-tX9X 9$$$yyyee:yy7$1& 1t&XX<$",
"<XX9XXX&&$$& ,&5,&,,$$1&1X1&1XX<",
"eXw9XX &&$&&&&&&&&&&&X&&& 1-tX<e",
"<XXXt& -&&&&&999&&&&9&&   &t99<<",
"$XX1w  -t&&9&&&9&&99&9&&&&& t9y$",
"yXXXX19ttt&9999&&999&99999   &ye",
"eXXXXt999t99ttttt99t99-99XttXXXe",
"ewX&t9   9919t9999-99999 ttt9X<4",
"$19-  &99t99tt9t9&tt99  9t99999$",
"y<9t9ttttt99999t9ttt99t<9999t9<$",
"e&9---X<-Xtt<ttttt9tt&-1X<<---yy",
"XX<$6<<X<<<$<yy<<$yyX<<<yy<<<<<$"
};
