/* XPM */
static char *result[] = {
/* columns rows colors chars-per-pixel */
"32 32 9 1 ",
"  c #010925",
". c #0E203B",
"X c #2B3E67",
"o c #3B4D78",
"O c #4E618B",
"+ c #6B85A4",
"@ c #8097B5",
"# c #A8C0DC",
"$ c #C0D5ED",
/* pixels */
"................................",
".o.....OO.......O....X......O...",
".oo.OOOO....+.OOO.X..XX..X..Oo..",
".oo.oo.....oo..O.....XX.....Xo..",
"...O@O...Xoo.XX Xooo....X.X.....",
"..o.oo...+++     oo+++X..XX..XX.",
"..oo.......X       XXXXo........",
".oooX...OX           XO....XX...",
"...XX..+Oo            XXo...X.X.",
"......X.$o            X$o.......",
".XX...o.X              oo+....X.",
".....oo.X              X$X...o..",
".....o$o                ++.o.o..",
"..++..+o                X..oo.X.",
".X$+....                Xo....X.",
"..+.+..+X                X#+.X..",
"....+o.OX               $O..XX..",
".X$+.++                o+O.#....",
".X+$..++XX             o+O.+O.X.",
"...+....+X               O$ OXX.",
"..o$.+$ +      X      OX O$X....",
"...+.+$XX  X  XX X    OXO.OXO...",
"..@+.X XX XXXXXXXXXXX.XXX Oo$...",
"....$X oXXXXXXXXXXXXXXX   X$++..",
"...O@  o$XXXXXXXXXXXXXXXXXX $+..",
".....O+$$$X++++XX+++X++X++   X..",
".....$+++$++$$$$$++$++o++.$$....",
".@.X$+   ++O+$$+++o+++++ $$$+...",
".O+o  X++$+$$$$$+X$$$+  +$+++++.",
".X+$+$$$$$$$+++$+$$$++$$++++$++.",
".X+ooo.oo.$$$$$$$$$$$XoO..oooo..",
"................................"
};
