/* XPM */
static const char *xpm_[] = {
/* columns rows colors chars-per-pixel */
"32 32 187 2 ",
"   c #010202",
".  c #0C0201",
"X  c #060802",
"o  c #090904",
"O  c #02010A",
"+  c #0C000C",
"@  c #130401",
"#  c #1A0400",
"$  c #150800",
"%  c #1A0B00",
"&  c #16050D",
"*  c #060512",
"=  c #0A0010",
"-  c #977E00",
";  c #9C7D02",
":  c #957C0D",
">  c #9C7D0B",
",  c #937D10",
"<  c #A27E01",
"1  c #9E8302",
"2  c #A38402",
"3  c #AA8403",
"4  c #A48A00",
"5  c #AD8C00",
"6  c #A4830A",
"7  c #AF8608",
"8  c #B38E02",
"9  c #BA9705",
"0  c #BB9D04",
"q  c #BB970D",
"w  c #BC9B0C",
"e  c #A98C14",
"r  c #AF9B14",
"t  c #AE9B18",
"y  c #BB9D13",
"u  c #B7971E",
"i  c #B29D1D",
"p  c #BA9B1D",
"a  c #BAA107",
"s  c #B9A008",
"d  c #B8A01A",
"f  c #B2A11D",
"g  c #AF9F2E",
"h  c #A49C2D",
"j  c #B19D22",
"k  c #A79B35",
"l  c #AB9C34",
"z  c #A79738",
"x  c #AE9A3C",
"c  c #B6A324",
"v  c #BAA62B",
"b  c #BCA82F",
"n  c #BAA525",
"m  c #C09300",
"M  c #C39C00",
"N  c #C19C1A",
"B  c #CDAE01",
"V  c #CCAD0B",
"C  c #D4AE03",
"Z  c #D8AE00",
"A  c #D3AE0B",
"S  c #D9AE0A",
"D  c #CEB203",
"F  c #CEB10C",
"G  c #D4B301",
"H  c #DAB402",
"J  c #D1B907",
"K  c #D2B20D",
"L  c #D9B30A",
"P  c #CEAC13",
"I  c #C5AC1B",
"U  c #C9AF1A",
"Y  c #D1AE14",
"T  c #D2AE1D",
"R  c #C7B015",
"E  c #CDB114",
"W  c #CDB31B",
"Q  c #D3B214",
"!  c #D3B21B",
"~  c #D1B919",
"^  c #CAAF22",
"/  c #D4AD2C",
"(  c #C7B120",
")  c #CEB323",
"_  c #CCB62D",
"`  c #D1B422",
"'  c #D8B622",
"]  c #CBB730",
"[  c #F5CD01",
"{  c #FACF01",
"}  c #F9CD0C",
"|  c #F7D205",
" . c #FDD402",
".. c #FFDA04",
"X. c #F7D20F",
"o. c #FCD40C",
"O. c #FEDA0B",
"+. c #F6CE14",
"@. c #F8CF11",
"#. c #F4CD1A",
"$. c #F8CF1F",
"%. c #EDD710",
"&. c #EFD21C",
"*. c #F5D213",
"=. c #FBD312",
"-. c #FED914",
";. c #F4D31B",
":. c #F9D61D",
">. c #E9C727",
",. c #E8CE23",
"<. c #EAC829",
"1. c #E6CB24",
"2. c #F3CF21",
"3. c #E8D129",
"4. c #F4D324",
"5. c #FAD326",
"6. c #F4D823",
"7. c #FCDC24",
"8. c #F5D62B",
"9. c #EACA32",
"0. c #EDD131",
"q. c #ECD13A",
"w. c #FEDE31",
"e. c #FAD638",
"r. c #F7DE3C",
"t. c #FFDE39",
"y. c #FEE229",
"u. c #FFE334",
"i. c #FFE836",
"p. c #FFE23B",
"a. c #A69F47",
"s. c #AD9B48",
"d. c #A49D4C",
"f. c #A69754",
"g. c #A59358",
"h. c #A9965C",
"j. c #A6A04A",
"k. c #ECD440",
"l. c #FEDC47",
"z. c #FEDE4B",
"x. c #F1D543",
"c. c #FEE443",
"v. c #FFE34A",
"b. c #FEE355",
"n. c #F4E35B",
"m. c #FBE15C",
"M. c #FBDF64",
"N. c #F3DE6D",
"B. c #EFD870",
"V. c #F4DC72",
"C. c #F1DC7C",
"Z. c #F6E563",
"A. c #FEE463",
"S. c #F5E16D",
"D. c #F7E171",
"F. c #F8E275",
"G. c #F5E279",
"H. c #EBDC87",
"J. c #EBDD8D",
"K. c #FBD884",
"L. c #E6DC9E",
"P. c #EADC93",
"I. c #EFE880",
"U. c #EAE38B",
"Y. c #F3E384",
"T. c #FAE081",
"R. c #F9E189",
"E. c #F4E48C",
"W. c #E2E192",
"Q. c #EEE292",
"!. c #F0E490",
"~. c #F1E49E",
"^. c #EBE1A6",
"/. c #F1E3A2",
"(. c #FFF7B5",
"). c #FFFBB3",
"_. c #FFFBC7",
"`. c #F9F2C8",
"'. c #FFFDCB",
"]. c #F9F1C3",
"[. c #FEF5D6",
"{. c #FFFCD3",
"}. c #FEF6DB",
"|. c #FEFCDB",
" X c #FFFEE3",
".X c #F5F8EF",
"XX c #FCFCEB",
/* pixels */
"                O     O       O O             O   O o     O O   ",
"                . . . @ . . @ . . . . . . $ . .   o O O O O     ",
"O         O     . + # C.q.0.9.Q E ` ^ _ x @ & . o     O O O     ",
"O   X   O O O o W.U.N.q.:.o.=.=.-.#.S Q ` c k d.+ O       O   X ",
"        O O   . T.M.z.e.4.;.6.,.3.6.D A P 0 y u $ @ . X   O O   ",
"      O O   [._.V.A.v.<.3 < 2 2 2 ; 6 3 ! V T N g g.@   X   O + ",
"      O o }./.C.Z.1 - 2 P H G G H H B P ; 2 1 W 0 b h.. O     O ",
"      O   '.Y.m.A.> 1 4 F Q A H C L G K 4 > 2 K 9 a l $ +       ",
"  O O XX'.Q.F.m.2 I ! V p.p.u.u.c.u.G H H G F 2 ! R w p a.+ . O ",
"  O    X'.J., 1 I b.v.c.8.;.:.;.*.O.| @.#.H B J < 4 F y k & .   ",
"  o   {.).Y.: 1 E v.z.t.;.o.o.=.+.-.{  .X.Z L A > 1 D w f # @   ",
"  o  XL.Y.N.6 1 V c.t.;.o.[  .{  . . . . .O.*.C 2 ; ' w 0 s.. O ",
"O   [.J.V.- ` Q p.4.;.-.|  . . .+. . . . . .o.H J Q < ! V n @ O ",
"O   |.!.S.1 V G p.;.o.[  .| o.*.m *. . . . .-.A G G 3 P Y r . X ",
"O . `.Q.S.1 Q G u.:.o. . .o.8.2 X. . . .O. .[ O.G H 3 E V n .   ",
"  . {.Q.V.2 Y H i.;.X. . .=.4 e  . .O.{  . .O.o.L C < W G i .   ",
"O   {.Q.B.2 Q C i.;.o. .{ o.4.3 X. . .[  . .{  .S H < ! J j .   ",
"O . ].Q.N.2 K G p.2.o. . .O.;.5 | O.O. . . .o.o.H H 3 Q V v .   ",
"O   {.J.D.1 V G i.*.| ..{ | ;.8 ..| [ O. . .o.H G D 3 Y P t .   ",
"O   {.P.G.- W Q u.7.X.[ O.O.*.M  . . . . . .=.C D Q < T E v . O ",
"O X  X^.E.N.2 ; U c.p.5.*. . .|  .....{  .o.+.H 2 < ' q a s.. O ",
"      {.(.Y.: 1 ( v.v.v.#.o.O. .o.[  . .o.H H C > ; F y i # @   ",
"      XX'.H.: 2 ) r.v.l.4.;.5.#.;.:.*.-.*.C A Q 1 2 R d l & .   ",
"  O O .X{.Q.S.m.< ! ! P i.y.u.c.u.w.L G G G Y 2 W W y j s.+   O ",
"    O O   '.Y.m.b.; 6 2 F G G C L G B J 1 > 6 F 9 a l % + X     ",
"      O o }.~.C.n.1 ; 3 K H G G Z H G E 2 2 1 R w b f.. O O     ",
"      O O   [._.K.x.&.>.7 < ; 2 2 6 < 3 V V ! / x g..     O O X ",
"        O O   . V.m.p.7.#.4.6.%.1.8.H Y Q w w p $ . O X     O   ",
"O   X   O O   X W.I.n.0.;.o.o.} -.$.G Y ~ j h j.+ O O         X ",
"O               . + # R.k.0.9.' V ) I ] z # & . o       O O O   ",
"                  . . . . @ @ . @ . @ . . @ . .   X   O O O O   ",
"                O             O O   O   O   O O   O *           "
};
