/* XPM */
static const char *xpm_[] = {
/* columns rows colors chars-per-pixel */
"32 32 197 2 ",
"   c #020102",
".  c #0B0101",
"X  c #030A01",
"o  c #080800",
"O  c #02020B",
"+  c #09060B",
"@  c #03090A",
"#  c #0A090A",
"$  c #130201",
"%  c #1C0200",
"&  c #010313",
"*  c #030913",
"=  c #01031A",
"-  c #060918",
";  c #080413",
":  c #220100",
">  c #020025",
",  c #19342D",
"<  c #16293D",
"1  c #684A3F",
"2  c #071E4A",
"3  c #0C254E",
"4  c #12294B",
"5  c #182544",
"6  c #0E2453",
"7  c #0F295D",
"8  c #0A2754",
"9  c #132C54",
"0  c #10265A",
"q  c #122D5F",
"w  c #172B57",
"e  c #212E51",
"r  c #132B60",
"t  c #3D5E7D",
"y  c #3C6265",
"u  c #3B656D",
"i  c #3D6A6C",
"p  c #3E6B71",
"a  c #3B647C",
"s  c #3D6B7E",
"d  c #396779",
"f  c #5F4C4E",
"g  c #694F40",
"h  c #784F49",
"j  c #714A45",
"k  c #64534D",
"l  c #6D534C",
"z  c #72524B",
"x  c #715446",
"c  c #6E4D54",
"v  c #6C555C",
"b  c #645257",
"n  c #755454",
"m  c #4D6F4E",
"M  c #456759",
"N  c #485C6C",
"B  c #5F5361",
"V  c #5B5867",
"C  c #54556E",
"Z  c #5B556D",
"A  c #555A6C",
"S  c #5C596C",
"D  c #575865",
"F  c #4D5574",
"G  c #4A5C75",
"H  c #4D5C7B",
"J  c #5C5773",
"K  c #545B74",
"L  c #5C5B72",
"P  c #545C7A",
"I  c #5B5C7C",
"U  c #575676",
"Y  c #625461",
"T  c #60556C",
"R  c #605D6B",
"E  c #675966",
"W  c #615A79",
"Q  c #426A63",
"!  c #486C62",
"~  c #426A6B",
"^  c #4A6668",
"/  c #526561",
"(  c #446375",
")  c #4C6474",
"_  c #436C72",
"`  c #4C6479",
"'  c #426A7D",
"]  c #4C6876",
"[  c #52657A",
"{  c #526675",
"}  c #447071",
"|  c #616370",
" . c #81747E",
".. c #7A9D6C",
"X. c #7F9E62",
"o. c #7B9E7C",
"O. c #799B75",
"+. c #7EA164",
"@. c #7EA36B",
"#. c #7DA372",
"$. c #7DA27C",
"%. c #819F62",
"&. c #819F6B",
"*. c #839D7E",
"=. c #81A366",
"-. c #83A36B",
";. c #89A364",
":. c #84A373",
">. c #82A37A",
",. c #85A872",
"<. c #3D6585",
"1. c #3B6B84",
"2. c #3D668A",
"3. c #3C6C89",
"4. c #356683",
"5. c #475788",
"6. c #465C8B",
"7. c #4D5D8D",
"8. c #505F88",
"9. c #4B5D93",
"0. c #495C96",
"q. c #4F6187",
"w. c #416A80",
"e. c #42668B",
"r. c #426B8C",
"t. c #486286",
"y. c #4B7083",
"u. c #536192",
"i. c #496894",
"p. c #787A8F",
"a. c #767789",
"s. c #787F99",
"d. c #7B7D96",
"f. c #827A81",
"g. c #877889",
"h. c #8B7B95",
"j. c #7A9C85",
"k. c #7E9D8D",
"l. c #7F809F",
"z. c #728498",
"x. c #7A9995",
"c. c #7CA282",
"v. c #7483A6",
"b. c #7D97A4",
"n. c #7A8CB6",
"m. c #7181B5",
"M. c #848182",
"N. c #8B9C84",
"B. c #859D86",
"V. c #839B9C",
"C. c #83A384",
"Z. c #81A38A",
"A. c #84A882",
"S. c #80A190",
"D. c #87A29B",
"F. c #BAAFAD",
"G. c #AEACB9",
"H. c #B2ADBD",
"J. c #ABB4BC",
"K. c #B5B2B8",
"L. c #9DAEC8",
"P. c #9FB5CB",
"I. c #9FB5D5",
"U. c #A4AFCC",
"Y. c #AAAFC2",
"T. c #A6B5C2",
"R. c #ADB3C4",
"E. c #AFB9C2",
"W. c #A3B4CB",
"Q. c #ABB3CB",
"!. c #A5B8CE",
"~. c #ABBACD",
"^. c #A5B9C0",
"/. c #B3B4C3",
"(. c #B3B5CC",
"). c #B3BACB",
"_. c #BAB5C0",
"`. c #A5AFD2",
"'. c #A6B6D6",
"]. c #A4B3D3",
"[. c #ABB5D3",
"{. c #A4B9D3",
"}. c #A9B8D1",
"|. c #ABBAD5",
" X c #A4B6DA",
".X c #ACBADB",
"XX c #A5B9DC",
"oX c #B2B6D3",
"OX c #A5B5E3",
"+X c #DCEFFD",
"@X c #DEF3FD",
"#X c #E4F6FF",
"$X c #E9F4FD",
"%X c #E5FAFF",
"&X c #E5FAFB",
"*X c #E7F8FB",
"=X c #F4F1F8",
/* pixels */
".   @ &X  .   .             .                             o     ",
"  + *X#X  .                 O O &   @                           ",
"    $XJ.    @           O Y.Q.[.Q.R.O     #         #           ",
"    =X_.K.            O R.Q.}.W.].}.R.O       o #               ",
"  . $ f .         O O J.*X+X@X%X#X!.!.R.&         +       O   o ",
"  . % n .       O ).& T.T.%X@X^.Q.!.W.|.= H.#   O       O O     ",
"  . : j .   O ).p.R.A ).T.$X$XE.Q.W.{.P.P (.a.R./.O O = K =     ",
"  . : h . O R.~.d.(.K R.= & O & > [.{.!.P Q.l.[.Q.Q.= K 5 = O   ",
"  . % z . J.!.'.s.Q.P Q.R.& O R.!.'.].}.H '.z.W.OX7.6.9 H ;     ",
"  . % l . K.~.].Q.[.P U.).O & R.!.'.].H OX X[ H G 4 9 e.` O     ",
"    . $ l F./.[.Q.[.H [.(.& & R.v.v.n.n.m.8.< < , b.t <.] O   o ",
"  @   . l %   Q.Q.F .XF R.& = oXq.w 2 9 r 4 V.V.o.x.y.a N @     ",
"      $ g % . - P [.U.|.F K K F 6.r i.<.e.( j.*.:.Z.y p ^       ",
".       k % . O P Q.].}.~.Q.U..X9.8 e.r.<.~ $.@.=.>.! Q D.X     ",
"    O /./.O ; V K [.|.L.*X~.W. X9.7 r.a a ~ #.+.+.:.m j.B.o     ",
"    R.Q.[.oXC L K ~.'.{.@X!.]. X9.q a s s Q O.-.=.=.:.>.*.o .   ",
"  O T.{.`.I K L L P  X].*XT.!.XX9.3 _ ! M c.@.=.=.%.-.#.C.  .   ",
"  O T.!.oXR.A Z A C (.Q.#XP.I.I.0.9 x.c.o.$.-.=.-.&.>.c.M @     ",
"    O E.H._.| S A & E G.~.#X'..X0.4 S.#.:...+.-.-...j.! ^ O     ",
"      + b .   O & V Y Y K./.R.(.9.4 k...@.,.=.-.+.A.! u ] -     ",
"  .   . l % . & S L S B n l v Y 5.w x.Z.j.$.-.X.+.$.y ' ` O .   ",
"      . z : . V L U I T c n n E 7.9 ( ~ ~ M #.-.=.o.~ w.N O .   ",
"  @   . : z . R Z U U J E v b O 7.0 a d s Q >.=.=.c._ d ]       ",
"      . % z . Z L L C W J L & O 9.0 r.1.d } O.-.=.c.u s )   .   ",
"      . : x .   D L U I D @ + O 0.q <.1.4.p $.=.;.c.p w.) @   o ",
"o     $ % 1 $   O T W Z R     & 7.0 <.1.r.u o.=.%.c.u w.G O #   ",
"      . % z .   g.g.h.g.f.    & u.6 e.3.2._ o.=.+.c._ a [ O     ",
".     . $ k . M. .g.g.f.M.    & 7.7 2.3.4._ $.-.=.$.~ ( { @     ",
"    @   . .     +     .       O 6.q 2.4.1.i O.@.+.C.M { O   o   ",
"  @                   o       O q.6 t.w.' Q A.:.:.B./ *       o ",
"                              @ P e G ) ) ^ N.O.N.X @       o   ",
".               .           @   & = = & = O X X X     O .       "
};
