/* XPM */
static const char *xpm_[] = {
/* columns rows colors chars-per-pixel */
"32 32 194 2 ",
"   c #020103",
".  c #0B0102",
"X  c #010A03",
"o  c #01020B",
"O  c #0A060A",
"+  c #020A0D",
"@  c #0A0A0B",
"#  c #130302",
"$  c #1C0302",
"%  c #14080A",
"&  c #010314",
"*  c #050A14",
"=  c #00051B",
"-  c #000320",
";  c #18283A",
":  c #193237",
">  c #061D47",
",  c #0D2648",
"<  c #102746",
"1  c #142947",
"2  c #132D4D",
"3  c #19304F",
"4  c #0D2754",
"5  c #0D2958",
"6  c #0B2654",
"7  c #122A53",
"8  c #182E57",
"9  c #132C5A",
"0  c #202D4D",
"q  c #3E635D",
"w  c #3F686C",
"e  c #3D6669",
"r  c #3C6476",
"t  c #3C647C",
"y  c #366378",
"u  c #5B4D4D",
"i  c #5F5355",
"p  c #654C4A",
"a  c #68534D",
"s  c #655252",
"d  c #6B5452",
"f  c #6B5956",
"g  c #67505A",
"h  c #6D565D",
"j  c #4D6F4E",
"k  c #4F6357",
"l  c #47665E",
"z  c #42695B",
"x  c #4A6C5D",
"c  c #476557",
"v  c #54655F",
"b  c #4D5F6D",
"n  c #465D63",
"m  c #5C5462",
"M  c #5D5865",
"N  c #555669",
"B  c #5C556B",
"V  c #55596D",
"C  c #5B5A6D",
"Z  c #4C5675",
"A  c #4B5B74",
"S  c #475E7E",
"D  c #4B5B7D",
"F  c #4D577A",
"G  c #5D5671",
"H  c #545B74",
"J  c #5C5B72",
"K  c #545D79",
"L  c #595975",
"P  c #665663",
"I  c #605468",
"U  c #635B6A",
"Y  c #6C5861",
"T  c #615B73",
"R  c #615D78",
"E  c #436461",
"W  c #446A62",
"Q  c #44636B",
"!  c #4C626D",
"~  c #446B6C",
"^  c #506365",
"/  c #51656C",
"(  c #456574",
")  c #456B75",
"_  c #43667A",
"`  c #436A7B",
"'  c #486978",
"]  c #4A6677",
"[  c #516573",
"{  c #576A70",
"}  c #52637A",
"|  c #4C717A",
" . c #646270",
".. c #80747E",
"X. c #779B6F",
"o. c #7C9F6C",
"O. c #7D9E67",
"+. c #7C9E74",
"@. c #7F9179",
"#. c #799D7D",
"$. c #759A79",
"%. c #7FA16C",
"&. c #7EA173",
"*. c #7EA17C",
"=. c #839E7A",
"-. c #81A36C",
";. c #82A373",
":. c #84A47A",
">. c #3F6386",
",. c #3E6983",
"<. c #3E6488",
"1. c #4C5C86",
"2. c #4B5E8C",
"3. c #475C89",
"4. c #525E83",
"5. c #456584",
"6. c #4C6283",
"7. c #41668A",
"8. c #4A608F",
"9. c #44698A",
"0. c #436D85",
"q. c #516083",
"w. c #53628B",
"e. c #4A6591",
"r. c #767A8D",
"t. c #787F99",
"y. c #797E94",
"u. c #837A84",
"i. c #887F82",
"p. c #847889",
"a. c #897D89",
"s. c #897D91",
"d. c #7C9D84",
"f. c #7B9B8D",
"g. c #77829B",
"h. c #789799",
"j. c #7B9A96",
"k. c #7DA182",
"l. c #7EA18B",
"z. c #7383A5",
"x. c #7182AD",
"c. c #7C98A3",
"v. c #7A8DB3",
"b. c #878185",
"n. c #839D82",
"m. c #8A9985",
"M. c #8A9C8B",
"N. c #819E97",
"B. c #83A382",
"V. c #87A589",
"C. c #86A296",
"Z. c #829BA2",
"A. c #ADACBC",
"S. c #B9AFB0",
"D. c #B0AEBC",
"F. c #ABB3BC",
"G. c #B4B2B7",
"H. c #B4B3BC",
"J. c #BCBABF",
"K. c #9DADC6",
"L. c #9FB1D5",
"P. c #AFAFC7",
"I. c #A6AFCA",
"U. c #A9AFC9",
"Y. c #A5B4C6",
"T. c #ACB4C4",
"R. c #A4B3CC",
"E. c #ABB4CC",
"W. c #ABB9CC",
"Q. c #ABB9C3",
"!. c #B4B5C3",
"~. c #B8B2C0",
"^. c #B1B6CC",
"/. c #B4B9CC",
"(. c #B2B8C4",
"). c #A6B6D1",
"_. c #A4B5D4",
"`. c #ABB6D2",
"'. c #A5B8D2",
"]. c #AFBAD2",
"[. c #ACB9D3",
"{. c #A4B6DA",
"}. c #A8B9DC",
"|. c #ADBBE0",
" X c #DEEFF9",
".X c #E7F0F5",
"XX c #E2F3FE",
"oX c #E3F4FE",
"OX c #EAF6FF",
"+X c #EBF5FC",
"@X c #E6F9FF",
"#X c #EEFBFF",
"$X c #EBF0F4",
"%X c #F4F2F7",
/* pixels */
"                                                        +X+     ",
"                          O o o o                       .X$XO   ",
"          @         @     o T.T.E.T.F.o                 F.$X    ",
"              @         o T.W.R.Y.W.T.T.o o           G.J.%X    ",
"    o       O       o & T.Y.W.XX@XXX X#XF.o o           u #     ",
"  o   o       o   * D.& ].R.E.Y.Q.XXOXT.T.& /.o o     . f $ .   ",
"    * V & & & !.T.r./.H R.'.R.W.(.OXOXT./.V T.r.(.o   . p $ .   ",
"  o & ; H = E.E.E.g.E.K ).).`.= & o & = T.L ^.y.E.T.o . d $ #   ",
"    & H 1 S 6._.R.g.`.F `.).).E.T.& & T.E.K E.t.E.T.G.. d $ .   ",
"    & } 6.2 1 A ] } _.}.D _._.`.E.& & /.I.K `.E.R./.G.. s # .   ",
"    + [ _ r c.: ; ; 6.x.v.v.z.z.E.& & ^.].K ].E.E.!.S.f # .     ",
"    + n ( | j.f.N.Z.< 7 7 > 8 q.].= & E.Z ].Z E.T.o # d .       ",
"    X / Q q l.B.d.f.( 5.>.e.9 3.Z K H Z ].R.`.H *   # a .       ",
"    X C.l x *.&.*.l.~ t 9.7.6 2.|.I.E.].[.).E.H o   % i       X ",
"    X M.d.j :.o.%.k.~ r t 9.9 8.}.R.W.oXK.[.E.L V * o !.!.o     ",
"    X m.B.&.-.-.;.*.z ~ ) t 9 2.{.'.R.XXW.`.E.H J N ^.E.T.F.o   ",
"      M.=.;.O.-.%.&.d.z W ) , 8.}.'.R.oXR.R.H H J L L U.W.T.o   ",
"    X k n.:.%.-.-.;.*.k.l.h.2 3.L.R.Y.oXE.^.V V V N P./.W.T.    ",
"  X o ^ x d.X.;.-.%.o.:.k.N.< 2.}.].OX(.A.C & N C  .~.D.H.o     ",
"    * / E x B.o.-.-.;.+.#.j.< 4.E.T.~.H.M m B & o   . i O       ",
"    o / ~ q *.-.O.;.*.d.C.h.3 F B P g Y m C T C o . $ d .       ",
"    o ! ' ~ #.;.-.;.c W ~ ( 2 4.U h h g I T B J M . $ d .       ",
"    o [ w ~ k.;.;.B.W ) _ t 7 4.& m P U G J J V U . d $ .       ",
"    o ! ) e k.&.;.#.~ r ,.9.4 1.& o M B R G J C M . d $ .       ",
"    o ! ) ~ *.;.;.k.~ t ,.>.9 3.& o o m T G J M   . d $ .       ",
"  + o b ) e k.o.&.#.w 0.,.<.5 1.= o   U B T B o   . p # .       ",
"    o [ Q ~ B.o.&.k.~ t ,.7.6 w.= o   u.p.s.p.a.  . f # .       ",
"    + / Q W k.;.;.k.) y ,.7.5 1.& o   b.u.u.a...i.. s # .       ",
"      o { l B.+.&.$.~ ` ,.7.9 D &             O     .           ",
"        + v n.=.:.V.W ' ` 5., q.&                               ",
"          X X m.@.M.^ b [ A 0 H &                               ",
"              X X X o & & = - = o                               "
};
