/* XPM */
static const char *xpm_[] = {
/* columns rows colors chars-per-pixel */
"32 32 183 2 ",
"   c #010102",
".  c #0B0102",
"X  c #02020B",
"o  c #09050A",
"O  c #070908",
"+  c gray4",
"@  c #120202",
"#  c #190503",
"$  c #13080C",
"%  c #010213",
"&  c #080717",
"*  c #0A0D16",
"=  c #061012",
"-  c #091022",
";  c #162329",
":  c #1D312F",
">  c #1F3334",
",  c #20352E",
"<  c #252F3D",
"1  c #282E3E",
"2  c #242430",
"3  c #203432",
"4  c #24313C",
"5  c #2C3339",
"6  c #1C3343",
"7  c #252F43",
"8  c #282D40",
"9  c #223042",
"0  c #273248",
"q  c #393C4F",
"w  c #2F4A5B",
"e  c #36535B",
"r  c #3F625E",
"t  c #384C64",
"y  c #5A4E4E",
"u  c #534850",
"i  c #5E5457",
"p  c #614C47",
"a  c #644F4C",
"s  c #60514E",
"d  c #654F5B",
"f  c #655353",
"g  c #695552",
"h  c #6B5956",
"j  c #64525C",
"k  c #6C565C",
"l  c #6D585F",
"z  c #70575D",
"x  c #4D6C59",
"c  c #5D6A58",
"v  c #546054",
"b  c #627758",
"n  c #4C4E63",
"m  c #4E5760",
"M  c #48526D",
"N  c #4E596F",
"B  c #445E6F",
"V  c #5D5564",
"C  c #545C63",
"Z  c #5D5866",
"A  c #55576D",
"S  c #5B556D",
"D  c #555A6C",
"F  c #5B5A6C",
"G  c #555361",
"H  c #4E5774",
"J  c #4D5872",
"K  c #4F5A78",
"L  c #555471",
"P  c #545B73",
"I  c #5B5B72",
"U  c #555C78",
"Y  c #5E5B78",
"T  c #5A5573",
"R  c #645564",
"E  c #6C5862",
"W  c #60556B",
"Q  c #645B6B",
"!  c #615C74",
"~  c #436264",
"^  c #48666D",
"/  c #54626E",
"(  c #5A6868",
")  c #5C6962",
"_  c #476776",
"`  c #4A6777",
"'  c #476879",
"]  c #556076",
"[  c #5A6F72",
"{  c #4F7079",
"}  c #606D66",
"|  c #616669",
" . c #686F75",
".. c #676778",
"X. c #716B77",
"o. c #6E717A",
"O. c #7D767E",
"+. c #6B846F",
"@. c #728D62",
"#. c #7E9B6F",
"$. c #708872",
"%. c #748978",
"&. c #73827B",
"*. c #7B9675",
"=. c #7C927D",
"-. c #7FA069",
";. c #819D74",
":. c #839D7D",
">. c #899D7A",
",. c #84A16D",
"<. c #84A373",
"1. c #84A17C",
"2. c #777580",
"3. c #7C7680",
"4. c #787C8E",
"5. c #787E96",
"6. c #767F9C",
"7. c #837A83",
"8. c #83798A",
"9. c #887E8A",
"0. c #897D91",
"q. c #7D8288",
"w. c #7D9986",
"e. c #6E8897",
"r. c #76809B",
"t. c #7B9791",
"y. c #7993A2",
"u. c #868187",
"i. c #819D83",
"p. c #86978F",
"a. c #819888",
"s. c #869788",
"d. c #839B93",
"f. c #839B9C",
"g. c #8C9898",
"h. c #80A088",
"j. c #83A282",
"k. c #8AA291",
"l. c #8899AB",
"z. c #A8B8AD",
"x. c #ADADBB",
"c. c #A5ACBE",
"v. c #B8AFB2",
"b. c #ABB3BD",
"n. c #A6B5B8",
"m. c #B3B3BC",
"M. c #B8B6B9",
"N. c #9DAECA",
"B. c #9EAEC5",
"V. c #A5AFCA",
"C. c #A4B4C5",
"Z. c #ACB4C4",
"A. c #A6B8C6",
"S. c #ADB9C6",
"D. c #A4B3CC",
"F. c #AFB6CD",
"G. c #ABB4CC",
"H. c #A7B9CD",
"J. c #ABB8CA",
"K. c #ACBBCD",
"L. c #B4B4C2",
"P. c #B4B8C6",
"I. c #B2B6CC",
"U. c #B2BACE",
"Y. c #B3B9CC",
"T. c #A4B6D1",
"R. c #AAB3D1",
"E. c #AAB5D1",
"W. c #ADB6D1",
"Q. c #AAB7D3",
"!. c #A4B8D2",
"~. c #AEB9D6",
"^. c #AAB9D2",
"/. c #B0BBD9",
"(. c #DFF2FF",
"). c #ECEFF3",
"_. c #E1EEFD",
"`. c #EEF1F6",
"'. c #E3F2FF",
"]. c #E4F4FF",
"[. c #EBF4FE",
"{. c #F4F2F7",
"}. c #F1FAFF",
/* pixels */
"                                                      [.X       ",
"            +             O X X X                     ).`.O     ",
"          O         +     X Z.F.Z.b.X                 m.).      ",
"              +       X m.Z.J.A.J.Z.Z.X             M.M.{.      ",
"            o       X b.}.Z.'.'._.Z.}.b.X X         . y .       ",
"              X X o.% b.b.Z.'.Z._.Z.Z.Z.% P.X X     @ g # .     ",
"        X X % I.4.Z.D Y.b.Z.[.Z.[.Z.Z.Y.D Z.4.P.X   @ a # .     ",
"      X 1 7 0 F.5.I.P Z.Z.Z.Z.Z.Z.Z.Z.Z.P F.5.F.Z.X @ g # @     ",
"    X 7 7 7 D.Q.r.G.U F.Z.Z.Z.Z.Z.Z.Z.G.U G.6.G.C.m.. g @ .     ",
"  X 7 9 9 c.K.C.G.R.U V.U.Z.Z.Z.Z.Z.U.V.U R.Q.V.Y.m.. f # .     ",
"O X 9 ^ p.z.n.S.G.~.K W.F.Z.Z.c.Z.Z.U.W.U ~.R.F.m.v.h @ .       ",
"X 4 6 ^ $.:.%.n.C.H ~.J F.Z.G.F.Z.Z.Z.J ~.H G.Z.  @ g @         ",
"% 9 _ ~ i.;.:.+./ Q.V.~.N ] U M P P J ~.D.W.P & . @ s @         ",
"% 9 ' ^ w.1.:.w./ D.D.^.G.G.V./.D.G.D.D.T.G.U X . $ i           ",
"% 9 ` ^ f.n.&.( D G.^.N.].K.D.D.D.^.].B.^.G.P D & X L.L.X X     ",
"% 9 e.y.C.S.m D P G.Q.^.(.H.!.N.T.D.(.K.Q.G.P I n I.F.Z.b.X     ",
"% 7 l.H.C.U D I P P D.D.].H.!.!.!.H.].H.D.U I I P U D.F.Z.X     ",
"% 7 A.A.S.b.C C D D U.F.].A.T.D.D.A.].Z.I.A F D A Z.U.Z.Z.X     ",
"% 4 9 [ k.:.*.=.} b.F x.P.[.W.W.K.[.Y.x.F % S F | L.x.m.X       ",
"% 4 4 d.*.<.<.;.s.| V Z m.L.Z.L.b.L.m.Z V Z % X   . i o         ",
"% 4 > k.;.,.-.<.p. .F V E f R j k j E V F I S o . # f . .       ",
"% 4 3 i.@.,.,.;.) C ! W d k k l k z j R ! S I V . # g .         ",
"% 4 , i.#.,.>.c C F I F Q R u . j R Q W I I F Q @ g # @         ",
"% < t.x 1.;.b v D I L ! S Z     o V S ! S I F V @ g # @         ",
"% 4 ~ x :.;.1.=.C I T Y L q       X V ! S I G   @ g # .         ",
"% 9 e r h.j.i.a.5 F I S U D         Q V ! S o   @ p @ @         ",
"% 9 w { t.w.d.g.2.8.0.8...F         7.8.0.8.9.. . h @ .         ",
"% 7 t B f.: ; q.3.9.7.X.2 *         u.7.7.9.O.7.. f @ .         ",
"X 1 7 9 ; = X                               o     . .           ",
"X X 8 - X                                                       ",
"  X       X                   O                                 ",
"          +                                                     "
};
