/* XPM */
static char *result[] = {
/* columns rows colors chars-per-pixel */
"32 32 18 1 ",
"  c #010000",
". c #0B0A0A",
"X c #0E0E0E",
"o c #1D1D1D",
"O c #252223",
"+ c gray14",
"@ c #20222C",
"# c #2F2C2C",
"$ c #252B31",
"% c #3A3A3A",
"& c #3C3938",
"* c #DE7C60",
"= c #AC8182",
"- c #D39283",
"; c #D79D8F",
": c #DCAA97",
"> c #E8B49E",
", c #EBBEB7",
/* pixels */
"X+$++++oo++$$%++oX.XXoooXX+$++++",
"XXo++++oX+$+++++oX..XXXX.XXo++++",
"XXXooooXXo+++++ooXXXXX..XXXXoooo",
"++@oooXXXoooooooXX@@+X.X@@++@ooX",
"$$$$+@oXXXoooX    $$+oX@+$$$$++o",
"++++++oX..XXX OOOO ++oX@+++++$+o",
"+++++$@XXX@@ OOOOO# +oXo++++++++",
"++++++oXo@++ OOOO## ooXo@+++++@o",
"++@+++ooX@++ OO#### XX.o@++@+++o",
"++++@+ooXo@+ ###### XX.ooo+++@+o",
"o+++++oXXooo- O### *XXXXoo@++++o",
"oo@++oooXXoo=:    ;=oo@XXooo@+oo",
"XoooooXXXXXXX O##O +$@+oXXoooooo",
"XXooooXXXooo O    O +$+$oXXoooXX",
"oXXXXXXX@@@ O #### O ++$+oXXXoXX",
"ooXXXXXo$++ O ####   +++@ooXXXXX",
"oXooXXXo@++ > #&&# >OooooooXoXXX",
"oX@@@oXXo+ ;  #O&O  ; ooXoX@@@oX",
"X+$++@oXXo ;  ####  ; XXXX@$+++o",
"X+++++oXXo -  >>>>  ; XoXXo++++o",
"Xoo++oXo@$@ o      , @@@XXoo+@oX",
"XXXooXXo@++oo #### X@$++o.XooXXX",
"X.XXXXXoo++oX ## # X@+++oX.XXXXX",
"Xo@@@@o.XooXX #  & Xo++@oXo@@+@o",
"X+$$+++oXX@@+ O X  XooooXX@$+$++",
"X+$++++oo@+$$ O o  XXoooXX+$++++",
"XXo+++@oX@++ #O o O XXXX.XXo++++",
"XXXooooXXo++    o   X...XXXXoooo",
"+@++@oXXXoooooooXX@@@X.X@@@++@oX",
"$$$$++oXXXooXooXXo$$+oX@+$$$+++o",
"+++++@oX..XXXXXX.o+++oX@$++++$+o",
"+++++++X.X+++++X.o+++oXo++++++++"
};
