/* XPM */
static char *result[] = {
/* columns rows colors chars-per-pixel */
"32 32 20 1 ",
"  c #010000",
". c #0B0A0A",
"X c #0E0E0E",
"o c #1D1D1D",
"O c #252223",
"+ c gray14",
"@ c #20222C",
"# c #2F2C2C",
"$ c #252B31",
"% c #3A3A3A",
"& c #3C3938",
"* c #624D43",
"= c #A06B69",
"- c #EF9B7B",
"; c #AC8182",
": c #D39283",
"> c #D79D8F",
", c #DCAA97",
"< c #E8B49E",
"1 c #EBBEB7",
/* pixels */
"X+$++++oo++$$%++oX.XXoooXX+$++++",
"XXo++++oX+$+++++oX..XXXX.XXo++++",
"XXXooooXXo+++++ooXXXXX..XXXXoooo",
"++@oooXXXoooooooXX@@+X.X@@++@ooX",
"$$$$+@oXXXoooX    $$+oX@+$$$$++o",
"++++++oX..XXX #### ++oX@+++++$+o",
"+++++$@XXX@@ ###### +oXo++++++++",
"++++++oXo@++ ###### ooXo@+++++@o",
"++@+++ooX@++  >:>,  XX.o@++@+++o",
"++++@+ooXo@+ , >,O, XX.ooo+++@+o",
"o+++++oXXooo < ,, 1 XXXXoo@++++o",
"oo@++oooXXooo <,,> @oo@XXooo@+oo",
"XoooooXXXXXXX *,>= +$@+oXXoooooo",
"XXooooXXXooo &O   & +$+$oXXoooXX",
"oXXXXXXX@@@ ###  #&# ++$+oXXXoXX",
"ooXXXXXo$++ #O###&O# +++@ooXXXXX",
"oXooXXXo@++ , &&&& - ooooooXoXXX",
"oX@@@oXXo++ > OOOO : oooXoX@@@oX",
"X+$++@oXXo >  ##OO O; XXXX@$+++o",
"X+++++oXXo ,>      <, XoXXo++++o",
"Xoo++oXo@$@    #     @@@XXoo+@oX",
"XXXooXXo@++oo #&## X@$++o.XooXXX",
"X.XXXXXoo++oX && O X@+++oX.XXXXX",
"Xo@@@@o.XooXX &  # Xo++@oXo@@+@o",
"X+$$+++oXX@@+ #  # XooooXX@$+$++",
"X+$++++oo@+$ O&  O# XoooXX+$++++",
"XXo+++@oX@++   +o   XXXX.XXo++++",
"XXXooooXXo+++++ooXXXX...XXXXoooo",
"+@++@oXXXoooooooXX@@@X.X@@@++@oX",
"$$$$++oXXXooXooXXo$$+oX@+$$$+++o",
"+++++@oX..XXXXXX.o+++oX@$++++$+o",
"+++++++X.X+++++X.o+++oXo++++++++"
};
