/* XPM */
static char *result[] = {
/* columns rows colors chars-per-pixel */
"32 32 17 1 ",
"  c #010000",
". c #0B0A0A",
"X c #0E0E0E",
"o c #1D1D1D",
"O c #252223",
"+ c gray14",
"@ c #20222C",
"# c #2F2C2C",
"$ c #252B31",
"% c #3A3A3A",
"& c #3C3938",
"* c #AC8182",
"= c #D39283",
"- c #D79D8F",
"; c #DCAA97",
": c #E8B49E",
"> c #EBBEB7",
/* pixels */
"X+$++++oo++$$%++oX.XXoooXX+$++++",
"XXo++++oX+$+++++oX..XXXX.XXo++++",
"XXXooooXXo+++++ooXXXXX..XXXXoooo",
"++@oooXXXoooooooXX@@+X.X@@++@ooX",
"$$$$+@oXXXoooX    $$+oX@+$$$$++o",
"++++++oX..XXX #OOO ++oX@+++++$+o",
"+++++$@XXX@@ OOOOO &+oXo++++++++",
"++++++oXo@+ :###OOO ooXo@+++++@o",
"++@+++ooX@+ :=;OOOO XX.o@++@+++o",
"++++@+ooXo@ > > :OO XX.ooo+++@+o",
"o+++++oXXoo -::&*OO XXXXoo@++++o",
"oo@++oooXXoo :::   @oo@XXooo@+oo",
"XoooooXXXXXX& ::  $+$@+oXXoooooo",
"XXooooXXXooooo  O $++$+$oXXoooXX",
"oXXXXXXX@@@@@@ ##O ++++$+oXXXoXX",
"ooXXXXXo$++++ &### @++++@ooXXXXX",
"oXooXXXo@++++ &#:= ooooooooXoXXX",
"oX@@@oXXo+++o #O:= oooooXoX@@@oX",
"X+$++@oXXooXX #O-- XXXXXXX@$+++o",
"X+++++oXXooXX O;-  ..XXoXXo++++o",
"Xoo++oXo@$@@o ::-  .o@@@XXoo+@oX",
"XXXooXXo@++oo  ;-  X@$++o.XooXXX",
"X.XXXXXoo++oXo   O X@+++oX.XXXXX",
"Xo@@@@o.XooXXX ##O Xo++@oXo@@+@o",
"X+$$+++oXX@@+@@ ## XooooXX@$+$++",
"X+$++++oo@+$$+$  O XXoooXX+$++++",
"XXo+++@oX@++++ ### .XXXX.XXo++++",
"XXXooooXXo++++     XX...XXXXoooo",
"+@++@oXXXoooooooXX@@@X.X@@@++@oX",
"$$$$++oXXXooXooXXo$$+oX@+$$$+++o",
"+++++@oX..XXXXXX.o+++oX@$++++$+o",
"+++++++X.X+++++X.o+++oXo++++++++"
};
