/* XPM */
static char *result[] = {
/* columns rows colors chars-per-pixel */
"32 32 122 2 ",
"   c #0E0E0E",
".  c #0C0C10",
"X  c #05121E",
"o  c #0B1A1F",
"O  c #141414",
"+  c #171A1C",
"@  c #1D1D1D",
"#  c #141D24",
"$  c #1E1E20",
"%  c #1B1D29",
"&  c #0E2029",
"*  c #1D2325",
"=  c #1E2029",
"-  c #102A37",
";  c #242424",
":  c #20222C",
">  c #26282A",
",  c #2A2A2A",
"<  c #252B31",
"1  c #2A2E35",
"2  c #2C3135",
"3  c #323435",
"4  c #3E3531",
"5  c #3C3937",
"6  c #32373D",
"7  c #34393C",
"8  c #3B3B3C",
"9  c #513A2D",
"0  c #44413E",
"q  c #48403F",
"w  c #584234",
"e  c #524339",
"r  c #634736",
"t  c #694634",
"y  c #6D4A31",
"u  c #634B3A",
"i  c #76513A",
"p  c #785339",
"a  c #373F44",
"s  c #3B3E41",
"d  c #3E4142",
"f  c #424344",
"g  c #4C4647",
"h  c #43464E",
"j  c #444A4E",
"k  c #4A4B4D",
"l  c #534D4C",
"z  c #5E524B",
"x  c #494E51",
"c  c #4F5153",
"v  c #525455",
"b  c #57585A",
"n  c #5B5B5B",
"m  c #6E5242",
"M  c #775944",
"N  c #61615E",
"B  c #726154",
"V  c #7A6B5D",
"C  c #5A5C60",
"Z  c #606263",
"A  c #646867",
"S  c #6F6A65",
"D  c #746F6A",
"F  c #6F716D",
"G  c #747573",
"H  c #7C7D7A",
"J  c #85592D",
"K  c #825C3D",
"L  c #895F3F",
"P  c #94653A",
"I  c #825A40",
"U  c #856243",
"Y  c #936743",
"T  c #976A44",
"R  c #9C6E43",
"E  c #956E4B",
"W  c #9F6F49",
"Q  c #A57246",
"!  c #AD7747",
"~  c #AD7A46",
"^  c #A27349",
"/  c #AD784B",
"(  c #B17D4F",
")  c #817D78",
"_  c #7E827C",
"`  c #BD844E",
"'  c #BE8756",
"]  c #C98A4F",
"[  c #C38A51",
"{  c #CB8B50",
"}  c #D69454",
"|  c #DA9654",
" . c #848583",
".. c #868882",
"X. c #8F8A87",
"o. c #93938B",
"O. c #9B9793",
"+. c #9C9C97",
"@. c #A29F99",
"#. c #A2A09A",
"$. c #A6A6A1",
"%. c #A8A7A4",
"&. c #ACABA4",
"*. c #B1ADA6",
"=. c #B2AEA9",
"-. c #B3B2A6",
";. c #B5B2AA",
":. c #B9B5AD",
">. c #BBB8AF",
",. c #B4B5B4",
"<. c #BBBDBA",
"1. c #C0BDB6",
"2. c #C0BEBA",
"3. c #C6C5BB",
"4. c #C9C7BE",
"5. c #CACABE",
"6. c #C9C6C1",
"7. c #CDCBC2",
"8. c #D2D2C6",
"9. c #D5D4CD",
"0. c #D6D5D3",
"q. c #E0DFD9",
/* pixels */
"  ; < ; ; ; ; @ @ ; ; < < 8 ; ; @         @ @ @     ; < ; ; ; ; ",
"    @ ; ; ; ; @   ; > ; ; ; ; ; @   .               . @ ; ; ; ; ",
"      @ @ @ @     @ ; ; ; ; ; @ @                       @ @ @ @ ",
"; ; : @ @ @       @ @ @ @ @ @ @     = % ;     @ 1 < > , : @ @   ",
"< < < < ; : @ O     @ @ @   @ .   @ < < ; 8 3 C b F o.G 2 ; ; @ ",
"; ; ; ; ; ; @             . @ j d j d v c C G ..5.7.;.F 1 < ; @ ",
"; ; ; ; ; < =       : : : = 4 Y ~ ^ s f ..#.5.q.&._ O , > ; ; ; ",
"; ; ; ; ; ; @   @ : ; ; 2 k ( } | | R x +.9.<.G h 2 ; ; ; ; : @ ",
"; ; : ; ; ; @ @   = ; ; - v E | | { J G G d v , = ; ; : ; ; ; @ ",
"; ; ; ; = ; @ @   @ = ; d a e ^ Q P V 3.O.d O $ @ @ ; ; ; : ; @ ",
"@ ; ; ; ; ; @     @ 8 _ 3.' n , 0 S 6.2. .d O   @ @ : ; ; ; ; @ ",
"@ @ : ; ; @ @ @      .6.1.=.#.*.8.0.<.%.A 3 =     $ @ @ : ; @ @ ",
"  @ @ @ @ @       F 2.;.*.=.5.:.) X.$.D 5 6 ; $     @ @ @ @ @ @ ",
"    @ @ @ @     F :.@.&.=.7.:.G N b S L m c ; < @     $ @ @     ",
"@       O   , H 4.&.&.=.7.;.A k 3 X y ^ Y 0 , , ; @       $     ",
"@ @       >  .4.:.=.=.7.-.8 x ; > f i ` ] z d ; : @ $           ",
"$   @ @ >  .4.:.=.*.7.-.d $ @     8 u ! } Y 6 @ @ @ $   $       ",
"@   = %  .4.:.*.*.9.;.h O :       ; 8 K ] ` 7 @   @   : = : $   ",
"  ; < @ O.8.>.>.9.,.Z ,   @     @   s w ` { M #     = < ; ; ; @ ",
"  ; ; ; c &.5.8.,.k f     @ : = :   3 q T | ^ &     $ ; ; ; ; @ ",
"  $ $ ; ; k 2 7 x 1 = = @ ; < < ; ;   o I { ^ -     @ @ ; : @   ",
"      @ @     @ = > ; $ @ @ ; ; ; ;   + e Q [ B *     @ @       ",
"              @ @ ; ; $   @ @ @         # T } U +               ",
"  $ : = : : @   . @ @         O         $ r / E ,   @ : : ; : $ ",
"  ; < < ; ; ; $     : : ; : : @ .       $ , p ' u   = < ; < ; ; ",
"  ; , ; ; ; ; @ @ : ; > < ; < ; O         k w W w   ; < ; ; ; ; ",
"    $ ; ; ; = $   % ; ; ; ; ; ; @     .   $ g K L 0 O $ ; ; ; ; ",
"      @ @ @ $     @ ; ; ; ; ; @ @           d 9 t c O   @ @ @ $ ",
"; = ; ; = $       @ @ @ @ @ @ +     : : =   * l 4 k < ; ; = $   ",
"< < < < ; ; $       @ @   @ @     @ < , ; @   2 O 2 < < ; ; ; @ ",
"; ; ; ; ; = @                     @ ; ; ; @   = , ; ; ; ; < ; @ ",
"; ; ; ; ; ; ;       ; ; ; ; ;     @ ; ; ; $   $ ; ; ; ; ; ; ; ; "
};
