/* XPM */
static char *result[] = {
/* columns rows colors chars-per-pixel */
"32 32 7 1 ",
"  c #0B0A0A",
". c #0E0E0E",
"X c #1D1D1D",
"o c gray14",
"O c #20222C",
"+ c #252B31",
"@ c #3A3A3A",
/* pixels */
".o+ooooXXoo++@ooX. ..XXX..o+oooo",
"..XooooX.o+oooooX.  .... ..Xoooo",
"...XXXX..XoooooXX.....  ....XXXX",
"ooOXXX...XXXXXXX..OOo. .OOooOXX.",
"++++oOX...XXX.X..X++oX.Oo++++ooX",
"ooooooX.  ...... XoooX.Oooooo+oX",
"ooooo+O...OOOOO. XOooX.Xoooooooo",
"ooooooX.XOoo+ooo.XXXXX.XOoooooOX",
"ooOoooXX.Ooooo+o..XX.. XOooOoooX",
"ooooOoXX.XOooooX. .... XXXoooOoX",
"XoooooX..XXXXXXX. ......XXOooooX",
"XXOooXXX..XXXXXX..OOXXO..XXXOoXX",
".XXXXX...........X+o+OoX..XXXXXX",
"..XXXX...XXXXX...O+oo+o+X..XXX..",
"X.......OOOOOOX..Xooooo+oX...X..",
"XX.....X+oooooO..XXOooooOXX.....",
"X.XX...XOoooooX..XXXXXXXXXX.X...",
"X.OOOX..XoooXO.....XXXXX.X.OOOX.",
".o+ooOX..XX..X..X ........O+oooX",
".oooooX..XX..XOOO..  ..X..XooooX",
".XXooX.XO+OOXo++oo. XOOO..XXoOX.",
"...XX..XOooXXXoooo..O+ooX .XX...",
". .....XXooX.XXX....OoooX. .....",
".XOOOOX .XX.........XooOX.XOOoOX",
".o++oooX..OOoOOX. ..XXXX..O+o+oo",
".o+ooooXXOo++o+oX. ..XXX..o+oooo",
"..XoooOX.OooooooX.  .... ..Xoooo",
"...XXXX..XoooooXX....   ....XXXX",
"oOooOX...XXXXXXX..OOO. .OOOooOX.",
"++++ooX...XX.XX..X++oX.Oo+++oooX",
"oooooOX.  ...... XoooX.O+oooo+oX",
"ooooooo. .ooooo. XoooX.Xoooooooo"
};
