/* XPM */
static const char *xpm_[] = {
/* columns rows colors chars-per-pixel */
"32 32 173 2 ",
"   c #020103",
".  c #0C0101",
"X  c #02020B",
"o  c #09020A",
"O  c #09080A",
"+  c #130404",
"@  c #180604",
"#  c #1A0806",
"$  c #12070A",
"%  c #010313",
"&  c #080717",
"*  c #0D0D12",
"=  c #100910",
"-  c #061012",
";  c #0A101E",
":  c #162327",
">  c #1E312F",
",  c #1F333E",
"<  c #24242E",
"1  c #20352E",
"2  c #252F3D",
"3  c #292E3C",
"4  c #213333",
"5  c #2C3437",
"6  c #24303B",
"7  c #262F41",
"8  c #292E41",
"9  c #233040",
"0  c #293144",
"q  c #3C3B4D",
"w  c #324A56",
"e  c #3A4D5E",
"r  c #395257",
"t  c #5C4E4D",
"y  c #544951",
"u  c #475F5F",
"i  c #4E5B5E",
"p  c #5D5151",
"a  c #5C545B",
"s  c #555D5F",
"d  c #635453",
"f  c #695555",
"g  c #665857",
"h  c #62535D",
"j  c #69575F",
"k  c #675959",
"l  c #6A5A5A",
"z  c #42615C",
"x  c #4E6B5B",
"c  c #536152",
"v  c #5C6B58",
"b  c #62765A",
"n  c #4D4E62",
"m  c #4A5269",
"M  c #475D6A",
"N  c #565260",
"B  c #5C5564",
"V  c #545B64",
"C  c #5A5A65",
"Z  c #56566B",
"A  c #5B566B",
"S  c #555B6D",
"D  c #5C5A6C",
"F  c #4E5772",
"G  c #4D5972",
"H  c #545B74",
"J  c #5C5C72",
"K  c #555F78",
"L  c #645663",
"P  c #675966",
"I  c #6A5862",
"U  c #60576C",
"Y  c #635A6B",
"T  c #635C73",
"R  c #4A646A",
"E  c #456363",
"W  c #5E6A65",
"Q  c #54616B",
"!  c #5C656C",
"~  c #516A6E",
"^  c #5B6C6C",
"/  c #4D6672",
"(  c #556076",
")  c #546F76",
"_  c #62606E",
"`  c #646270",
"'  c #6D6E75",
"]  c #6C6B7B",
"[  c #6E707C",
"{  c #76767E",
"}  c #7B787E",
"|  c #718D67",
" . c #6C8276",
".. c #71857B",
"X. c #74887D",
"o. c #7C937C",
"O. c #7E9A74",
"+. c #839E75",
"@. c #839B7C",
"#. c #889D7C",
"$. c #86A175",
"%. c #85A27C",
"&. c #7A7B8D",
"*. c #787E94",
"=. c #787F99",
"-. c #827C84",
";. c #847D8B",
":. c #7B8385",
">. c #7E9082",
",. c #7E978D",
"<. c #748496",
"1. c #7E9992",
"2. c #7C92A0",
"3. c #868187",
"4. c #829287",
"5. c #839B85",
"6. c #83958B",
"7. c #829C8C",
"8. c #89998E",
"9. c #849793",
"0. c #8A9A95",
"q. c #859A9C",
"w. c #88A080",
"e. c #84A089",
"r. c #8AA193",
"t. c #8899A9",
"y. c #ACADBA",
"u. c #B8AFB4",
"i. c #B1AFBB",
"p. c #A7B8B2",
"a. c #A8BBB7",
"s. c #A2B2BC",
"d. c #ACB3BD",
"f. c #A6B5B7",
"g. c #B4B2B7",
"h. c #B4B3BF",
"j. c #BDB8BC",
"k. c #9FAEC5",
"l. c #9BAFCA",
"z. c #ABAFC3",
"x. c #A3AFCA",
"c. c #A6B4C5",
"v. c #ADB4C3",
"b. c #A7B8C2",
"n. c #ACBBC4",
"m. c #A5B4CB",
"M. c #AAB5CE",
"N. c #AFB6CD",
"B. c #ABB5CB",
"V. c #ABB9CC",
"C. c #B4B4C3",
"Z. c #B4B8C6",
"A. c #B0B5C9",
"S. c #B3B6CB",
"D. c #B2B9C9",
"F. c #B2BACD",
"G. c #B3B9CB",
"H. c #A4B7D1",
"J. c #ADB6D1",
"K. c #AAB6D1",
"L. c #A6B8D0",
"P. c #AEBAD5",
"I. c #ABB9D2",
"U. c #B0BBD7",
"Y. c #EDEEF2",
"T. c #E3EEFB",
"R. c #EFF1F6",
"E. c #E5F3FF",
"W. c #E4F3FE",
"Q. c #ECF3FD",
"!. c #F1F5F8",
"~. c #F1FAFF",
"^. c #F4F2F5",
/* pixels */
"      X !.                                                      ",
"    O R.Y.                  X X X   o             O             ",
"      R.g.                X d.v.A.v.X X   O         O           ",
"      ^.j.g.            X v.v.V.c.n.d.h.X     O O               ",
"    . . t .         X X d.~.v.T.E.E.v.~.d.X       O             ",
"    . @ g .     X X Z.% d.d.v.T.b.W.v.d.v.% [ X X X             ",
"    . @ d .   X Z.&.v.S D.d.d.Q.d.Q.d.d.D.S v.&.D.% X X         ",
"    + @ f + o d.A.*.N.H v.v.X       X v.v.S B.*.B.0 8 3 X       ",
"    . @ f . i.d.B.=.B.H B.v.v.X     v.v.B.H B.<.M.m.7 2 2 X X   ",
"    . + d . g.Z.z.M.M.H c.F.v.v.  d.v.F.x.H K.B.c.V.s.6 9 2 X   ",
"      . + k u.h.A.B.P.H J.F.v.v.X d.v.N.I.G J.B.n.a.p.9.R 6 X X ",
"        . g $ X z.B.F P.F B.B.v.% v.v.B.G P.G c.f.X.5...~ , 6 X ",
"        . p + o & H J.x.P.G ( H m H K G P.m.M.Q  .5.5.7.E / 6 % ",
"          a = o % H B.m.M.m.M.m.U.x.M.M.I.m.M.Q 6.5.7.,.R / 2 % ",
"    X O C.C.X & S H M.I.k.W.I.m.x.m.M.E.k.I.M.S ^ ..a.q.R / 9 % ",
"    X d.v.A.S.n J H M.M.V.W.M.L.l.H.m.W.M.K.B.S Q i n.s.2.<.9 % ",
"    X d.B.c.J S J J H m.c.E.m.L.H.L.m.E.B.B.H S S V Q c.V.t.7 % ",
"    X h.v.G.v.Z S S Z S.v.E.c.m.m.M.c.E.v.D.V V V i f.n.b.c.7 % ",
"      X h.y.C.` D A % D y.Z.Q.B.F.N.Q.Z.y.D d.W o.o.5.r.^ 6 6 % ",
"        o a o o X % A B C h.C.i.C.C.C.h.C C ! 4.@.%.%.o.7.4 6 % ",
"        . g $ . o A T D B P h L h L h P N C ' 8.w.+.$.@.r.4 6 % ",
"        . g @ . B D A T L L I j I j I h B _ V W @.+.$.| 5.4 6 % ",
"        . @ g . Y A D D U Y L h o y L Y D D A s v #.+.O.5.1 6 % ",
"        . @ f + B D J A T A B o     B D J Z D V c b +.%.x ,.2 % ",
"        . # f +   N J A D N o       q Z J A D V >.5.@.5.x M 6 % ",
"        . + t . . o D U B Y X       Z J A J A 5 6.5.e.7.z r 6 % ",
"        . + l . . -.;.;.;.-.        D ] &.;.;.{ 0.0.7.1.) w 9 % ",
"        . . d . -.} ;.-.-.3.        * < ' -.;.} :.: > q.M e 7 % ",
"            .     O                               X - : 9 7 3 X ",
"                                                      X ; 3 X X ",
"                                O                   O     X X   ",
"                                                    *           "
};
