/* XPM */
static const char *xpm_[] = {
/* columns rows colors chars-per-pixel */
"32 32 92 1 ",
"  c #010000",
". c #0B0001",
"X c #010109",
"o c #090009",
"O c #130101",
"+ c #1D0100",
"@ c #1A0800",
"# c #18010B",
"$ c #240101",
"% c #2A0101",
"& c #2B0804",
"* c #330101",
"= c #3B0100",
"- c #450101",
"; c #4A0101",
": c #400308",
"> c #560001",
", c #590505",
"< c #620101",
"1 c #7F0B0C",
"2 c #7D120B",
"3 c #6C1614",
"4 c #840D0D",
"5 c #880A0D",
"6 c #9D0305",
"7 c #9E0108",
"8 c #830E10",
"9 c #851312",
"0 c #A40003",
"q c #AF0100",
"w c #A6020A",
"e c #AA0009",
"r c #B60004",
"t c #BB0000",
"y c #B11F1F",
"u c #A3211F",
"i c #AE201F",
"p c #BB1B23",
"a c #9F2324",
"s c #9F2728",
"d c #8A3434",
"f c #903135",
"g c #A22326",
"h c #AA2322",
"j c #A62B24",
"k c #A52A23",
"l c #A82B25",
"z c #AE2A26",
"x c #A12629",
"c c #A2272A",
"v c #AA2128",
"b c #AA252A",
"n c #AB262B",
"m c #AF2729",
"M c #A8262E",
"N c #A52A2F",
"B c #A72C2E",
"V c #B32227",
"C c #CA0F0A",
"Z c #D70C0F",
"A c #CD150B",
"S c #CE110D",
"D c #D7100D",
"F c #D7140E",
"G c #CF0E13",
"H c #D00C10",
"J c #D20F15",
"K c #C41510",
"L c #C61316",
"P c #CB1512",
"I c #C91514",
"U c #C81614",
"Y c #C91715",
"T c #CA1617",
"R c #CC1517",
"E c #C41912",
"W c #C41D17",
"Q c #CC1912",
"! c #CC1914",
"~ c #CA171A",
"^ c #CA1818",
"/ c #CC1819",
"( c #D41411",
") c #D11015",
"_ c #D01317",
"` c #DB1016",
"' c #D11A16",
"] c #D1141A",
"[ c #D7121C",
"{ c #DA1819",
"} c #F5050E",
"| c #E00E11",
/* pixels */
"                   X            ",
"        .+%$%&%&%%%$$O.         ",
"        %3p[J)HZ]G{/h,+         ",
"       .$1`}D'QA!C(Ti>OX        ",
"       .%5Tq;%%****%%O          ",
"       .%5L0%oX     X           ",
"       .+8^0+                   ",
"       .%5Tw@XX X     o         ",
"       .$8T6$  X                ",
"       .%8P0*OOOOOO..           ",
"       .%8St<;-----=+.          ",
"       .%4F|vMhcsxNf*.          ",
"       .%4F|vMhcsxNf*.          ",
"       .%8St<;-----=+.          ",
"       .%8P0*OOOOOO..           ",
"       .$8T6$  X                ",
"       .%2~w%                   ",
"       .%2E7$                   ",
"       .*4K0&  o                ",
"       .%5Re=O.#OO..O.oo        ",
"       .%9Tr<;=------*.         ",
"       .$2W)yzjhluhmad+         ",
"       .$3kVgganBxgncd$         ",
"       .X%=-:;-;-:=-;*OX        ",
"        ...OOOOO.OOOO..         ",
"                  ...           ",
"                                ",
"                                ",
"                                ",
"                                ",
"                                ",
"                                "
};
