/* XPM */
static const char *xpm_[] = {
/* columns rows colors chars-per-pixel */
"32 32 117 2 ",
"   c #001B38",
".  c #001B3A",
"X  c #001C3C",
"o  c #001C3E",
"O  c #001C40",
"+  c #001C41",
"@  c #001D41",
"#  c #001D43",
"$  c #001D44",
"%  c #001E45",
"&  c #001F47",
"*  c #001E48",
"=  c #001E4A",
"-  c #001F4D",
";  c #001F4E",
":  c #001F51",
">  c #001F55",
",  c #002053",
"<  c #002651",
"1  c #002753",
"2  c #002055",
"3  c #002155",
"4  c #002158",
"5  c #002059",
"6  c #002258",
"7  c #00205B",
"8  c #00215B",
"9  c #00205C",
"0  c #00215C",
"q  c #00225C",
"w  c #002361",
"e  c #002262",
"r  c #002365",
"t  c #002167",
"y  c #002266",
"u  c #002367",
"i  c #002465",
"p  c #002268",
"a  c #002368",
"s  c #002468",
"d  c #397DBC",
"f  c #387DBE",
"g  c #4979A7",
"h  c #407CB0",
"j  c #2F7FC8",
"k  c #357FC0",
"l  c #327FC5",
"z  c #317FC7",
"x  c #307EC8",
"c  c #317FC9",
"v  c #1F84D6",
"b  c #1F84DC",
"n  c #2683C8",
"m  c #2781CD",
"M  c #3080C9",
"N  c #3181CA",
"B  c #2483D7",
"V  c #2183DC",
"C  c #1A85E3",
"Z  c #1C85E0",
"A  c #1C85E1",
"S  c #1A85E5",
"D  c #1985E7",
"F  c #1A85E7",
"G  c #1587EA",
"H  c #1686EC",
"J  c #1985EA",
"K  c #1984EC",
"L  c #1984EE",
"P  c #1885EE",
"I  c #0F87F5",
"U  c #0E86F6",
"Y  c #0F87F7",
"T  c #0F88F3",
"R  c #0E87F8",
"E  c #0F87F8",
"W  c #0F86FA",
"Q  c #0988FD",
"!  c #0889FE",
"~  c #0B88FE",
"^  c #0A89FE",
"/  c #0A88FF",
"(  c #0B88FF",
")  c #0B8AFF",
"_  c #1088F9",
"`  c #6DA6DD",
"'  c #47ADFF",
"]  c #47AEFF",
"[  c #48AEFF",
"{  c #49AEFF",
"}  c #4AAEFF",
"|  c #4BAEFF",
" . c #4EACFF",
".. c #4FADFF",
"X. c #4CAEFF",
"o. c #53ACFC",
"O. c #50ACFF",
"+. c #51ACFF",
"@. c #51ADFF",
"#. c #52ADFF",
"$. c #67A7E4",
"%. c #7BE0FF",
"&. c #7DE0FF",
"*. c #83DEFF",
"=. c #84DEFF",
"-. c #87DFFF",
";. c #89DEFF",
":. c #8CDCFF",
">. c #8DDDFF",
",. c #8FDCFF",
"<. c #97D9FF",
"1. c #90DCFF",
"2. c #90DDFF",
"3. c #92DCFF",
"4. c #80E1FF",
"5. c #82E0FF",
"6. c #87E0FF",
/* pixels */
"  @ : 5 q q q 5 q q q q q 5 > = @ @ : 5 q q q 5 q q q q q 5 > : ",
"@ g d z M M x x M j M M M z d ` = g d z M M x x M j M M M z d $.",
", d V H H H H H H H H H H D B :.q d V H H H H H H H H H H D B =.",
"5 M H Q Q Q Q Q Q Q Q Q Q Y D O.r M H Q Q Q Q Q Q Q Q Q Q E J } ",
"q M H Q Q Q Q Q Q Q Q Q Q E K O.p M H Q Q Q Q Q Q Q Q Q Q E K } ",
"q M H Q Q Q Q Q Q Q Q Q Q E K ..p M H Q Q Q Q Q Q Q Q Q Q E K } ",
"q j H Q Q Q Q Q Q Q Q Q Q E K ..p j H Q Q Q Q Q Q Q Q Q Q E K } ",
"q M H Q Q Q Q Q Q Q Q Q Q E K ..p M H ) Q Q Q Q Q Q Q Q Q E K } ",
"q M H Q Q Q Q Q Q Q Q Q Q E K ..p M H Q Q Q Q Q Q Q Q Q Q E K } ",
"q M H Q Q Q Q Q Q Q Q Q Q E K ..p M H Q Q Q Q Q Q Q Q Q Q E K } ",
"q M H Q Q Q Q Q Q Q Q Q Q E K ..p M H Q Q Q Q Q Q Q Q Q Q E K } ",
"5 M H Q Q Q Q Q Q Q Q Q Q Y J O.r M H Q Q Q Q Q Q Q Q Q Q Y J } ",
"q M H Q Q Q Q Q Q Q Q Q Q Y A =.i M H Q Q Q Q Q Q Q Q Q Q Y A &.",
"2 k A T Y Y _ E E E E E Y G v ;.q k A T Y Y _ E E E E E Y G v 4.",
"$ h m A C D K K K K K K D b n 2.; h m A C D K K K K K K D b n 6.",
"X < 2.=.O.*.O.O.......O.O.=.:.<.$ < 2.=.O.*.O.O.......O.O.=.:.:.",
"  @ 5 e r r p r p s s p r e 5 ; @ @ 5 e r r p r p s s p r e 5 2 ",
"@ g d z M M x x M j M M M z d ` = g d z M M x x M j M M M z d $.",
", d V H H H H H H H H H H D B :.q d V H H H H H H H H H H D B =.",
"5 M H Q Q Q Q Q Q Q Q Q Q Y D O.r M H Q Q Q Q Q Q Q Q Q Q Y D } ",
"q M H Q Q Q Q Q Q Q Q Q Q E K O.p M H Q Q Q Q Q Q Q Q Q Q E K } ",
"q M H Q Q Q Q Q Q Q Q Q Q E K ..p M H Q Q Q Q Q Q Q Q Q Q E K } ",
"q j H Q Q Q Q Q Q Q Q Q Q E K ..p j H Q Q Q Q Q Q Q Q Q Q E K } ",
"q M H Q Q Q Q Q Q Q Q Q Q E K ..p M H Q Q Q Q Q Q Q Q Q Q E K } ",
"q M H Q Q Q Q Q Q Q Q Q Q E K ..p M H Q Q Q Q Q Q Q Q Q Q E K } ",
"q M H Q Q Q Q Q Q Q Q Q Q E K ..p M H Q Q Q Q Q Q Q Q Q Q E K } ",
"q M H Q Q Q Q Q Q Q Q Q Q E K ..p M H Q Q Q Q Q Q Q Q Q Q E K } ",
"5 M H Q Q Q Q Q Q Q Q Q Q Y J O.r M H Q Q Q Q Q Q Q Q Q Q Y J } ",
"q M H Q Q Q Q Q Q Q Q Q Q Y A =.i M H Q Q Q Q Q Q Q Q Q Q Y A &.",
"2 k A T Y Y _ E E E E E Y G v ;.q k A T Y Y _ E E E E E Y G v 4.",
"$ h m A C D K K K K K K D b n 2.; h m A C D K K K K K K D b n 6.",
"X < :.&...%.} } ] ] ] } } 4.=.2.$ < :.&...%.} } ] ] ] } } 4.=.;."
};
