/* XPM */
static char *result[] = {
/* columns rows colors chars-per-pixel */
"32 32 12 1 ",
"  c #202341",
". c #284260",
"X c #3A5A7B",
"o c #406385",
"O c #4A6E90",
"+ c #597C9F",
"@ c #738DAF",
"# c #8399BA",
"$ c #8DA7C0",
"% c #A0B2D2",
"& c #B1CFF1",
"* c #C1D5FD",
/* pixels */
"*### *****### *#****## ****#oX @",
"##oo #####ooo +######o ######o o",
"#o#o #O#OXoo. ooO+o#oo #o#OoOo  ",
"                                ",
"  ****#  ******o$ o***oo  ###oo ",
" #####oo *#####oo #####o #####oo",
" o##ooX  +oO#oOOo @oooOo #Oooo#o",
"                                ",
"***o  ***ooo  *****  o***#Oo   o",
"####o #####o *#####o #######X &#",
"oo #o ##o#oX ##+oooo oooooooo ##",
"   ## #                         ",
"        ****#   *OX#X  **## ****",
"o oo**  ####X **##### *#@XX *###",
"o ##### #o#oo #*#oo#o ##oX# ##oo",
"              *@oo##O ooo       ",
"     **###                ****  ",
"#  **###o# ***#oX *oooo+ X#####o",
"## O###ooo O##### ##O### ##ooooo",
"#o #Oooo+# o#OXOo oX###o #ooo   ",
"                                ",
"oooo *##*oo  ***##X  ****#  ###o",
"#### #####o *####### #####o ##O#",
"o#oo ooo#+O ##+ooooo %ooooo o#oo",
"                                ",
"****o  *ooooo  ***#oo  ***#oo  #",
"####Oo #####oo #####o %#####o  #",
"#Oooo  #oX#### X##oo# ##ooooo #O",
"                                ",
"*XX  ***ooX  **** *****  o****O ",
"##o #####O# ####o O####o #####o ",
"ooo +oooooo oo#oo oooooo oooooo "
};
